<?xml version="1.0" standalone="no"?>
<!DOCTYPE svg PUBLIC "-//W3C//DTD SVG 20010904//EN"
 "http://www.w3.org/TR/2001/REC-SVG-20010904/DTD/svg10.dtd">
<svg version="1.0" xmlns="http://www.w3.org/2000/svg"
 width="138.000000pt" height="138.000000pt" viewBox="0 0 138.000000 138.000000"
 preserveAspectRatio="xMidYMid meet">
<metadata>
Created by potrace 1.14, written by Peter Selinger 2001-2017
</metadata>
<g transform="translate(0.000000,138.000000) scale(0.100000,-0.100000)"
fill="#000000" stroke="none">
<path d="M152 1367 c-55 -21 -103 -67 -129 -125 -22 -47 -25 -63 -19 -116 11
-112 99 -198 207 -202 81 -3 127 13 180 66 110 109 85 277 -54 364 -35 22
-142 30 -185 13z"/>
<path d="M1070 1366 c-52 -15 -123 -91 -139 -148 -38 -136 47 -273 183 -293
144 -22 266 87 266 237 0 18 -11 56 -24 84 -50 108 -163 155 -286 120z"/>
<path d="M610 907 c-46 -15 -122 -92 -137 -140 -60 -197 129 -369 313 -283
172 80 178 322 10 408 -47 24 -133 31 -186 15z"/>
<path d="M134 436 c-183 -85 -175 -344 14 -419 148 -59 301 44 308 207 7 171
-166 285 -322 212z"/>
<path d="M1077 447 c-56 -18 -106 -63 -133 -121 -51 -109 -15 -227 89 -293 36
-23 53 -27 117 -27 64 0 81 4 115 26 57 36 81 66 100 123 61 181 -105 349
-288 292z"/>
</g>
</svg>
